<svg width="24" height="24" viewBox="0 0 24 24" fill="none" xmlns="http://www.w3.org/2000/svg">
<path d="M14.5 7.5C14.5 6.11929 13.3807 5 12 5C10.6193 5 9.5 6.11929 9.5 7.5C9.5 8.88071 10.6193 10 12 10C13.3807 10 14.5 8.88071 14.5 7.5ZM16.5 7.5C16.5 9.98528 14.4853 12 12 12C9.51472 12 7.5 9.98528 7.5 7.5C7.5 5.01472 9.51472 3 12 3C14.4853 3 16.5 5.01472 16.5 7.5Z" fill="#0D0D0D"/>
<path d="M17 19C17 18.3194 17 17.3589 17 16.5C17 15.9476 16.5522 15.5 16 15.5C13.8052 15.5 10.2897 15.5 7.99707 15.5C7.44677 15.5 7 15.9457 7 16.5V19C7 19.5523 6.55228 20 6 20C5.44772 20 5 19.5523 5 19V16.5C5 14.8451 6.33823 13.5 7.99707 13.5H16C17.6569 13.5 18.9999 14.8433 19 16.5C19 17.3589 19 18.3194 19 19C19 19.5523 18.5523 20 18 20C17.4477 20 17 19.5523 17 19Z" fill="#0D0D0D"/>
</svg>
