<svg width="24" height="24" viewBox="0 0 24 24" fill="none" xmlns="http://www.w3.org/2000/svg">
<path fill-rule="evenodd" clip-rule="evenodd" d="M19.2002 4C20.7157 4.0001 22 5.20891 22 6.75V17.25C22 18.7911 20.7157 19.9999 19.2002 20H4.7998C3.28435 19.9999 2 18.7911 2 17.25V6.75C2 5.20891 3.28435 4.0001 4.7998 4H19.2002ZM12.5547 13.3525C12.2188 13.5485 11.7812 13.5485 11.4453 13.3525L4 9.00879V17.25C4 17.6338 4.33545 17.9999 4.7998 18H19.2002C19.6646 17.9999 20 17.6338 20 17.25V9.00879L12.5547 13.3525ZM4.7998 6C4.33545 6.0001 4 6.36621 4 6.75V6.90625L12 11.5732L20 6.90625V6.75C20 6.36621 19.6646 6.0001 19.2002 6H4.7998Z" fill="#FAFAFA"/>
</svg>
