<svg width="24" height="24" viewBox="0 0 24 24" fill="none" xmlns="http://www.w3.org/2000/svg">
<path d="M16 19.5C16 20.5 14.2091 21 12 21C9.79086 21 8 20.5 8 19.5C8 18.5 9.79086 18 12 18C14.2091 18 16 18.5 16 19.5Z" fill="#FAFAFA"/>
<path d="M12 2C12.8672 2 14.1043 2.28457 15.1445 3.14062C16.2252 4.0301 17 5.46126 17 7.54883C16.9999 9.60407 16.1995 11.6467 15.2812 13.1553C14.8186 13.9153 14.303 14.5779 13.8008 15.0645C13.5505 15.3069 13.2841 15.5245 13.0107 15.6875C12.7539 15.8406 12.401 16 12 16C11.599 16 11.2461 15.8406 10.9893 15.6875C10.7159 15.5245 10.4495 15.3069 10.1992 15.0645C9.697 14.5779 9.18138 13.9153 8.71875 13.1553C7.80054 11.6467 7.00011 9.60407 7 7.54883C7 5.46126 7.77476 4.0301 8.85547 3.14062C9.8957 2.28457 11.1328 2 12 2ZM12 5C10.8954 5 10 5.89543 10 7C10 8.10457 10.8954 9 12 9C13.1046 9 14 8.10457 14 7C14 5.89543 13.1046 5 12 5Z" fill="#FAFAFA"/>
</svg>
