<svg width="24" height="24" viewBox="0 0 24 24" fill="none" xmlns="http://www.w3.org/2000/svg">
<path d="M21.0996 12C21.0996 6.97421 17.0258 2.90039 12 2.90039C6.97421 2.90039 2.90039 6.97421 2.90039 12C2.90039 17.0258 6.97421 21.0996 12 21.0996C17.0258 21.0996 21.0996 17.0258 21.0996 12ZM11.0996 8.02344C11.0996 7.52638 11.5029 7.12305 12 7.12305C12.4971 7.12305 12.9004 7.52638 12.9004 8.02344V12.6016L16.0342 13.6465C16.5056 13.8036 16.7605 14.3127 16.6035 14.7842C16.4464 15.2556 15.9373 15.5105 15.4658 15.3535L11.7158 14.1035C11.3483 13.981 11.0996 13.6374 11.0996 13.25V8.02344ZM22.9004 12C22.9004 18.0199 18.0199 22.9004 12 22.9004C5.9801 22.9004 1.09961 18.0199 1.09961 12C1.09961 5.9801 5.9801 1.09961 12 1.09961C18.0199 1.09961 22.9004 5.9801 22.9004 12Z" fill="#FAFAFA"/>
</svg>
