<svg width="24" height="24" viewBox="0 0 24 24" fill="none" xmlns="http://www.w3.org/2000/svg">
<path d="M20.4688 4.05615C20.1058 3.96715 19.6932 3.98117 19.1876 4.11817C16.2584 4.91217 4.6145 8.69615 3.6563 9.12015C2.612 9.58216 2.0094 10.3962 2.0001 11.4642C1.9877 12.8922 3.1387 14.0132 4.5001 13.9652C4.5439 13.9642 6.2284 13.9872 7.1876 13.9972C7.1876 13.9972 8.0438 18.2782 8.0645 18.3292C8.3144 18.9432 8.9006 19.1262 9.4063 18.9052L12.2501 17.6542C12.572 17.9712 14.7364 20.0622 14.9688 20.2492C15.6614 20.8052 16.2599 20.9802 17.0001 20.9992C18.1918 21.0302 19.2328 20.3292 19.7813 19.1862C20.1256 18.4692 21.7303 8.42817 21.8751 7.43216C22.105 5.85116 22.053 5.23016 21.4063 4.58716C21.1464 4.32916 20.8319 4.14415 20.4688 4.05615ZM20 5.99515C20 5.99515 20.0486 6.17215 19.9063 7.15015C19.3972 10.6522 18.1907 17.8172 17.9376 18.4042C17.7647 18.8062 17.4182 19.0092 17.0313 18.9982C16.6908 18.9892 16.5213 18.9292 16.2188 18.6862C16.0632 18.5612 15.3631 17.8962 14.3751 16.9352C14.3627 16.9232 12.4045 15.0122 12.4045 15.0122C12.2136 14.8222 12.0342 14.7092 11.6583 14.7052C11.4397 14.7052 11.1512 14.8712 11.1512 14.8712L9.6474 16.1442L9.1251 13.5902L15.4063 10.9022C15.9137 10.6842 16.1558 10.0961 15.9376 9.58915C15.7195 9.08115 15.1325 8.83917 14.6251 9.05717L7.8126 11.9962C7.4247 11.9942 4.5342 11.9612 4.4376 11.9652C4.2151 11.9722 3.9976 11.7542 4.0001 11.4642C4.0021 11.2322 4.1044 11.0942 4.4688 10.9332C5.3134 10.5592 16.8167 6.82815 19.6559 6.05915C19.9237 5.98615 20 5.99515 20 5.99515Z" fill="#FAFAFA"/>
</svg>
